<?xml version="1.0" encoding="utf-8"?><svg xmlns="http://www.w3.org/2000/svg" xmlns:xlink="http://www.w3.org/1999/xlink"><symbol viewBox="0 0 31 31" id="burger" xmlns="http://www.w3.org/2000/svg"><path d="M29.708 16.765H1.292a1.292 1.292 0 010-2.584h28.416a1.292 1.292 0 010 2.584zm0-9.903H1.292a1.292 1.292 0 010-2.583h28.416a1.292 1.292 0 010 2.583zm0 19.805H1.292a1.292 1.292 0 010-2.583h28.416a1.292 1.292 0 010 2.583z"/></symbol><symbol viewBox="0 0 24 24" id="home" xmlns="http://www.w3.org/2000/svg"><g clip-path="url(#bclip0)"><path d="M23.597 10.729l-2.028-1.847V2.756a.706.706 0 00-.705-.706h-4.88a.706.706 0 00-.707.706v.392L12.83.918a1.225 1.225 0 00-1.658 0L.403 10.728a1.223 1.223 0 00-.319 1.354c.185.478.636.786 1.148.786h1.72V22.7c0 .39.316.706.706.706H9.56c.39 0 .706-.316.706-.706v-5.969h3.468v5.97c0 .389.316.705.706.705h5.902c.39 0 .706-.316.706-.706v-9.83h1.72c.512 0 .963-.31 1.148-.787a1.22 1.22 0 00-.32-1.354zm-3.255.729a.706.706 0 00-.706.706v9.83h-4.49v-5.969a.706.706 0 00-.706-.705H9.56a.706.706 0 00-.706.705v5.97h-4.49v-9.831a.706.706 0 00-.706-.706H1.699L12 2.072l3.508 3.196a.706.706 0 001.181-.522V3.462h3.469v5.731c0 .199.084.388.23.522l1.913 1.743h-1.959z"/></g><defs><clipPath id="bclip0"><path d="M0 0h24v24H0z"/></clipPath></defs></symbol><symbol viewBox="0 0 24 25" id="seeing" xmlns="http://www.w3.org/2000/svg"><g clip-path="url(#cclip0)"><path d="M19.266 12.577V10.32a7.319 7.319 0 00-5.157-6.997V2.3c0-1.17-.946-2.123-2.109-2.123S9.89 1.13 9.89 2.3v1.022a7.319 7.319 0 00-5.156 6.997v2.258c0 2.893-1.095 5.637-3.085 7.725a.71.71 0 00-.14.767c.111.26.366.43.647.43h6.4c.326 1.613 1.746 2.83 3.444 2.83s3.118-1.217 3.445-2.83h6.399c.281 0 .536-.17.646-.43a.71.71 0 00-.139-.767 11.148 11.148 0 01-3.085-7.725zM11.296 2.3c0-.39.316-.707.704-.707.388 0 .703.317.703.707v.742a7.277 7.277 0 00-1.406 0V2.3zM12 22.914a2.114 2.114 0 01-1.988-1.415h3.976A2.114 2.114 0 0112 22.914zm-8.328-2.83a12.563 12.563 0 002.469-7.507V10.32c0-3.251 2.628-5.896 5.86-5.896 3.23 0 5.858 2.645 5.858 5.896v2.258c0 2.733.868 5.347 2.47 7.507H3.671zm17.469-9.764c0 .39.315.707.703.707a.705.705 0 00.703-.708c0-2.835-1.097-5.5-3.089-7.505a.7.7 0 00-.994 0 .71.71 0 000 1.001 9.168 9.168 0 012.677 6.504zm-18.985.707a.705.705 0 00.703-.708c0-2.457.951-4.767 2.678-6.504a.71.71 0 000-1 .7.7 0 00-.995 0 10.578 10.578 0 00-3.089 7.504c0 .391.315.708.703.708z"/></g><defs><clipPath id="cclip0"><path transform="translate(0 .177)" d="M0 0h24v24.152H0z"/></clipPath></defs></symbol><symbol viewBox="0 0 18 20" id="user" xmlns="http://www.w3.org/2000/svg"><path d="M8.853 10.974C3.144 10.974 0 13.697 0 18.641c0 .387.31.7.693.7h16.32a.696.696 0 00.693-.7c0-4.944-3.144-7.667-8.853-7.667zm-7.44 6.968c.272-3.697 2.772-5.57 7.44-5.57 4.668 0 7.168 1.873 7.44 5.57H1.414zM8.854.184c-2.623 0-4.6 2.034-4.6 4.73 0 2.776 2.063 5.034 4.6 5.034 2.536 0 4.6-2.258 4.6-5.033 0-2.697-1.978-4.731-4.6-4.731zm0 8.366c-1.772 0-3.213-1.63-3.213-3.635 0-1.931 1.351-3.333 3.213-3.333 1.832 0 3.213 1.433 3.213 3.333 0 2.004-1.442 3.635-3.213 3.635z"/></symbol></svg>