<?xml version="1.0" encoding="utf-8"?><svg xmlns="http://www.w3.org/2000/svg" xmlns:xlink="http://www.w3.org/1999/xlink"><symbol viewBox="0 0 29 27" id="arrow-next" xmlns="http://www.w3.org/2000/svg"><g clip-path="url(#aclip0)"><path d="M22.002 12.76L8.588.304a1.184 1.184 0 00-1.59.002.996.996 0 00.003 1.48L19.616 13.5 7 25.212a.996.996 0 00-.002 1.48c.22.205.508.308.796.308.288 0 .575-.102.794-.306l13.414-12.453a1.01 1.01 0 00.33-.741c0-.278-.12-.544-.33-.74z"/></g><defs><clipPath id="aclip0"><path d="M0 0h29v27H0z"/></clipPath></defs></symbol><symbol viewBox="0 0 29 27" id="arrow-prev" xmlns="http://www.w3.org/2000/svg"><g clip-path="url(#bclip0)"><path d="M6.998 12.76L20.413.304a1.184 1.184 0 011.59.002.996.996 0 01-.003 1.48L9.384 13.5 22 25.212a.996.996 0 01.002 1.48c-.22.205-.508.308-.796.308-.288 0-.575-.102-.794-.306L6.999 14.241a1.01 1.01 0 01-.33-.741c0-.278.118-.544.33-.74z"/></g><defs><clipPath id="bclip0"><path transform="matrix(-1 0 0 1 29 0)" d="M0 0h29v27H0z"/></clipPath></defs></symbol><symbol viewBox="0 0 20 11" id="back" xmlns="http://www.w3.org/2000/svg"><path d="M8.212 10.508l-6.79-4.719h18.161c.23 0 .417-.13.417-.29 0-.16-.187-.29-.417-.29H1.423L8.211.492c.16-.115.155-.299-.01-.41a.556.556 0 00-.58 0l-7.5 5.214c-.163.113-.163.296 0 .41l7.5 5.214c.166.11.43.108.59-.007.156-.113.156-.29 0-.403v-.001z"/></symbol><symbol viewBox="0 0 18 18" id="book" xmlns="http://www.w3.org/2000/svg"><g clip-path="url(#dclip0)"><path d="M11.637 12.542l4.684-3.089-4.684-3.089v6.178zm1.054-4.219l1.714 1.13-1.714 1.13v-2.26z"/><path d="M9.1 3.613c-.169-.082-2.62-2.07-6.463-2.07h-.528v1.786C.991 3.495.243 3.712 0 3.768v12.689c.369-.05 4.074-1.364 8.872-.164l.128.032.128-.032c4.803-1.201 8.502.114 8.872.164V3.767c-.244-.032-4.064-1.295-8.9-.154zM1.055 15.119V4.597c.349-.079.701-.146 1.054-.202V14.2h.528c1.137 0 2.276.2 3.347.577a18.072 18.072 0 00-4.93.343zm7.418-.316a11.179 11.179 0 00-5.309-1.646V2.612c3.175.17 5.146 1.77 5.309 1.85v10.34zm8.472.316a18.077 18.077 0 00-7.418 0V4.597a17.009 17.009 0 017.418 0v10.522z"/></g><defs><clipPath id="dclip0"><path d="M0 0h18v18H0z"/></clipPath></defs></symbol><symbol viewBox="0 0 89 88" id="brand" xmlns="http://www.w3.org/2000/svg"><path d="M25.439 61.472l1.966-1.944L11.701 44 50.64 5.5h23.064V11h-3.02a4.136 4.136 0 00-1.823-2.183 4.212 4.212 0 00-2.816-.508c-.97.165-1.85.663-2.484 1.407a4.097 4.097 0 00-.982 2.659c0 .973.347 1.915.982 2.659a4.183 4.183 0 002.484 1.407 4.213 4.213 0 002.816-.508 4.136 4.136 0 001.823-2.183h3.02v14.555L46.298 55.403l1.967 1.944 27.812-27.5a1.374 1.374 0 00.407-.972V22h4.172c1.476 0 2.89-.58 3.934-1.61a5.469 5.469 0 001.629-3.89 5.469 5.469 0 00-1.63-3.89A5.595 5.595 0 0080.657 11h-4.172V4.125c0-.365-.146-.714-.407-.972a1.399 1.399 0 00-.983-.403H50.063a1.404 1.404 0 00-.984.403L8.751 43.028a1.375 1.375 0 00-.407.972 1.361 1.361 0 00.407.972l16.688 16.5zm39.92-49.097c0-.364.148-.714.408-.972A1.4 1.4 0 0166.75 11v2.75a1.4 1.4 0 01-.983-.403 1.369 1.369 0 01-.408-.972zm15.297 1.375c.738 0 1.445.29 1.967.806.521.515.815 1.215.815 1.944 0 .73-.294 1.429-.815 1.945a2.797 2.797 0 01-1.967.805h-4.172v-5.5h4.172z"/><path d="M40.535 29.881c.21.664.577 1.269 1.07 1.765a4.438 4.438 0 001.767 1.087 4.24 4.24 0 00.497 1.871 4.28 4.28 0 001.283 1.461c.574.43 1.243.72 1.952.846a4.63 4.63 0 002.128-.12c.435.533.985.964 1.61 1.26a4.682 4.682 0 004.005 0 4.63 4.63 0 001.61-1.26 4.629 4.629 0 004.08-.726 4.28 4.28 0 001.283-1.461 4.227 4.227 0 00.497-1.871 4.44 4.44 0 001.767-1.087 4.377 4.377 0 001.07-1.765 4.161 4.161 0 00-.578-3.756 4.16 4.16 0 00.578-3.756 4.374 4.374 0 00-1.07-1.765 4.44 4.44 0 00-1.767-1.087 4.227 4.227 0 00-.497-1.871 4.28 4.28 0 00-1.282-1.461 4.629 4.629 0 00-4.08-.725 4.632 4.632 0 00-1.611-1.26 4.683 4.683 0 00-4.005 0 4.63 4.63 0 00-1.61 1.26 4.63 4.63 0 00-4.08.725 4.28 4.28 0 00-1.283 1.461 4.228 4.228 0 00-.497 1.871 4.44 4.44 0 00-1.767 1.087 4.377 4.377 0 00-1.07 1.765 4.16 4.16 0 00.578 3.756 4.16 4.16 0 00-.578 3.756zm3.324-4.903c-.3-.177-.53-.45-.653-.774a1.501 1.501 0 01-.019-1.008c.114-.359.346-.67.66-.88a1.7 1.7 0 011.07-.286 1.403 1.403 0 001.168-.573 1.366 1.366 0 00.175-1.277 1.508 1.508 0 01-.033-.992c.1-.325.31-.607.592-.802a1.787 1.787 0 012.183-.007 1.4 1.4 0 002.159-.702c.268-.868 1.045-1.177 1.684-1.177.638 0 1.415.31 1.683 1.177a1.394 1.394 0 001.552.956 1.4 1.4 0 00.607-.254 1.785 1.785 0 012.184.007c.282.195.49.477.591.802.102.325.09.674-.033.992a1.36 1.36 0 00.175 1.277 1.387 1.387 0 001.168.573c.378-.026.755.075 1.07.286.313.212.546.521.66.88.11.328.103.684-.019 1.008a1.522 1.522 0 01-.653.774 1.38 1.38 0 00-.624 1.147 1.363 1.363 0 00.624 1.147c.3.177.531.45.653.774s.129.68.019 1.008a1.67 1.67 0 01-.66.88 1.7 1.7 0 01-1.07.286 1.404 1.404 0 00-1.168.573 1.365 1.365 0 00-.175 1.277c.123.318.135.667.033.992-.1.325-.31.608-.591.802a1.787 1.787 0 01-2.184.007 1.4 1.4 0 00-2.159.702c-.268.868-1.045 1.177-1.683 1.177-.639 0-1.416-.31-1.684-1.177a1.372 1.372 0 00-.896-.904 1.405 1.405 0 00-1.263.202 1.787 1.787 0 01-2.184-.007 1.525 1.525 0 01-.591-.802 1.508 1.508 0 01.033-.992 1.36 1.36 0 00-.175-1.277 1.386 1.386 0 00-1.167-.573 1.698 1.698 0 01-1.071-.285 1.667 1.667 0 01-.66-.88 1.501 1.501 0 01.019-1.009c.122-.324.353-.597.653-.774a1.38 1.38 0 00.624-1.147 1.363 1.363 0 00-.624-1.147zm-19.81 11.175l-8.344 8.25 1.967 1.944 8.343-8.25-1.966-1.944zm4.171 4.125l-8.343 8.25 1.967 1.944 8.343-8.25-1.966-1.944zm4.173 4.125l-8.344 8.25 1.966 1.944 8.344-8.25-1.966-1.944zm4.171 4.125l-8.343 8.25 1.966 1.944 8.344-8.25-1.967-1.944zm4.172 4.125l-4.171 4.125 1.966 1.944 4.172-4.125-1.967-1.944zM34.36 29.278l-1.967 1.944 3.39 3.352 1.966-1.945-3.39-3.351zm5.214 5.156l-1.967 1.945 8.692 8.593 1.967-1.944-8.692-8.594zm-21.834-22.1a8.175 8.175 0 013.796 2.122 8.037 8.037 0 012.146 3.752c.075.298.249.562.493.75a1.401 1.401 0 001.712 0 1.37 1.37 0 00.493-.75 8.037 8.037 0 012.146-3.752 8.175 8.175 0 013.796-2.122c.3-.075.567-.246.758-.488a1.365 1.365 0 000-1.692 1.392 1.392 0 00-.758-.488 8.175 8.175 0 01-3.796-2.122 8.037 8.037 0 01-2.146-3.752 1.374 1.374 0 00-.493-.75 1.401 1.401 0 00-1.712 0 1.374 1.374 0 00-.493.75 8.037 8.037 0 01-2.146 3.752 8.175 8.175 0 01-3.795 2.122 1.39 1.39 0 00-.759.488 1.365 1.365 0 000 1.692c.19.242.458.413.759.488zm7.291-4.74A10.853 10.853 0 0028.476 11a10.853 10.853 0 00-3.445 3.406A10.853 10.853 0 0021.586 11a10.853 10.853 0 003.445-3.407zm44.271 33.314l-10.488 10.37 1.967 1.944 10.488-10.37-1.967-1.944zm4.809-4.755l-2.78 2.75 1.966 1.944 2.78-2.75-1.966-1.944zM84.828 57.75H72.313c-.37 0-.723.145-.984.403a1.37 1.37 0 00-.407.972v1.303a21.97 21.97 0 00-11.522-4.02 22.012 22.012 0 00-11.901 2.737L45.063 60.5H33.375a7.01 7.01 0 00-3.59.986 6.905 6.905 0 00-2.56 2.679 6.81 6.81 0 00.412 7.088l-14.833-7.286a6.623 6.623 0 00-2.852-.673l-.598-.005a6.57 6.57 0 00-4.068 1.37 6.443 6.443 0 00-2.324 3.574 6.383 6.383 0 00.429 4.228 6.484 6.484 0 002.996 3.046l17.064 8.437a12.694 12.694 0 005.597 1.306h55.78c.37 0 .723-.145.984-.403a1.37 1.37 0 00.407-.972v-24.75a1.37 1.37 0 00-.407-.972 1.399 1.399 0 00-.984-.403zM24.695 81.484L7.63 73.048a3.72 3.72 0 01-1.716-1.741 3.662 3.662 0 01-.252-2.418 3.695 3.695 0 011.319-2.051 3.77 3.77 0 012.322-.799h.03l.597.004a3.803 3.803 0 011.636.387l15.627 7.676c.192.095.404.144.619.144H45.89c.369 0 .722-.145.983-.403a1.367 1.367 0 000-1.944 1.399 1.399 0 00-.983-.403H33.375a4.196 4.196 0 01-2.95-1.208 4.101 4.101 0 01-1.222-2.917c0-1.094.44-2.143 1.222-2.917a4.196 4.196 0 012.95-1.208h12.052a1.4 1.4 0 00.682-.176l2.753-1.532a19.213 19.213 0 0121.224 1.708l.836.66V82.5H29.048a9.875 9.875 0 01-4.353-1.016zM83.438 82.5h-9.735v-22h9.735v22z"/><path d="M78.57 78.375c.413 0 .816-.121 1.16-.348a2.06 2.06 0 00.767-.925 2.042 2.042 0 00-.452-2.248 2.108 2.108 0 00-2.273-.447c-.381.156-.707.42-.936.76a2.046 2.046 0 00.26 2.603 2.1 2.1 0 001.474.605zM31.578 34.778l-1.967 1.944 11.125 11 1.967-1.944-11.125-11z"/></symbol><symbol viewBox="0 0 31 31" id="burger" xmlns="http://www.w3.org/2000/svg"><path d="M29.708 16.765H1.292a1.292 1.292 0 010-2.584h28.416a1.292 1.292 0 010 2.584zm0-9.903H1.292a1.292 1.292 0 010-2.583h28.416a1.292 1.292 0 010 2.583zm0 19.805H1.292a1.292 1.292 0 010-2.583h28.416a1.292 1.292 0 010 2.583z"/></symbol><symbol viewBox="0 0 32 32" id="close" xmlns="http://www.w3.org/2000/svg"><path d="M16 32C7.177 32 0 24.823 0 16S7.177 0 16 0s16 7.177 16 16-7.177 16-16 16zm0-30C8.28 2 2 8.28 2 16s6.28 14 14 14 14-6.28 14-14S23.72 2 16 2z"/><path d="M11.05 21.95a1 1 0 01-.707-1.708l9.9-9.9a1 1 0 011.415 1.414l-9.9 9.9a1 1 0 01-.707.293z"/><path d="M20.948 21.95a.992.992 0 01-.706-.294l-9.9-9.898a1 1 0 111.415-1.415l9.9 9.9a1 1 0 01-.709 1.706z"/></symbol><symbol viewBox="0 0 20 20" id="copyright" xmlns="http://www.w3.org/2000/svg"><path d="M10 20C4.486 20 0 15.514 0 10S4.486 0 10 0s10 4.486 10 10-4.486 10-10 10zm0-18.75c-4.825 0-8.75 3.925-8.75 8.75s3.925 8.75 8.75 8.75 8.75-3.925 8.75-8.75S14.825 1.25 10 1.25z"/><path d="M10 15c-2.757 0-5-2.243-5-5s2.243-5 5-5c1.356 0 2.624.533 3.572 1.502l-.893.874A3.72 3.72 0 0010 6.25 3.754 3.754 0 006.25 10 3.754 3.754 0 0010 13.75c1.016 0 1.967-.4 2.679-1.126l.892.875A4.96 4.96 0 0110 15z"/></symbol><symbol viewBox="0 0 16 16" id="envelope" xmlns="http://www.w3.org/2000/svg"><g clip-path="url(#iclip0)"><path d="M14.5 2h-13C.673 2 0 2.673 0 3.5v9c0 .827.673 1.5 1.5 1.5h13c.827 0 1.5-.673 1.5-1.5v-9c0-.827-.673-1.5-1.5-1.5zm0 1c.068 0 .133.014.192.039L8 8.839l-6.692-5.8A.498.498 0 011.5 3h13zm0 10h-13a.5.5 0 01-.5-.5V4.095l6.672 5.783a.5.5 0 00.656 0L15 4.095V12.5a.5.5 0 01-.5.5z"/></g><defs><clipPath id="iclip0"><path d="M0 0h16v16H0z"/></clipPath></defs></symbol><symbol viewBox="0 0 24 24" id="home" xmlns="http://www.w3.org/2000/svg"><g clip-path="url(#jclip0)"><path d="M23.597 10.729l-2.028-1.847V2.756a.706.706 0 00-.705-.706h-4.88a.706.706 0 00-.707.706v.392L12.83.918a1.225 1.225 0 00-1.658 0L.403 10.728a1.223 1.223 0 00-.319 1.354c.185.478.636.786 1.148.786h1.72V22.7c0 .39.316.706.706.706H9.56c.39 0 .706-.316.706-.706v-5.969h3.468v5.97c0 .389.316.705.706.705h5.902c.39 0 .706-.316.706-.706v-9.83h1.72c.512 0 .963-.31 1.148-.787a1.22 1.22 0 00-.32-1.354zm-3.255.729a.706.706 0 00-.706.706v9.83h-4.49v-5.969a.706.706 0 00-.706-.705H9.56a.706.706 0 00-.706.705v5.97h-4.49v-9.831a.706.706 0 00-.706-.706H1.699L12 2.072l3.508 3.196a.706.706 0 001.181-.522V3.462h3.469v5.731c0 .199.084.388.23.522l1.913 1.743h-1.959z"/></g><defs><clipPath id="jclip0"><path d="M0 0h24v24H0z"/></clipPath></defs></symbol><symbol viewBox="0 0 18 18" id="info" xmlns="http://www.w3.org/2000/svg"><g clip-path="url(#kclip0)"><path d="M17.473 0H.527A.527.527 0 000 .527v13.927c0 .29.236.527.527.527h1.815v2.492a.527.527 0 00.884.388l3.138-2.88h11.109a.527.527 0 00.527-.527V.527A.527.527 0 0017.473 0zm-.528 13.926H6.16c-.132 0-.26.05-.356.14l-2.406 2.207v-1.82a.527.527 0 00-.528-.527H1.055V1.055h15.89v12.871z"/><path d="M9 12.445a4.937 4.937 0 004.931-4.931A4.937 4.937 0 009 2.582a4.937 4.937 0 00-4.932 4.932A4.937 4.937 0 009 12.445zm0-8.808a3.881 3.881 0 013.877 3.877A3.881 3.881 0 019 11.39a3.881 3.881 0 01-3.877-3.876A3.881 3.881 0 019 3.637z"/><path d="M9 8.028a.527.527 0 00.527-.527V5.298a.527.527 0 00-1.054 0V7.5c0 .29.236.527.527.527zm0 2.229c.276 0 .54-.243.528-.528A.537.537 0 009 9.202c-.275 0-.54.243-.527.527a.537.537 0 00.527.528z"/></g><defs><clipPath id="kclip0"><path d="M0 0h18v18H0z"/></clipPath></defs></symbol><symbol viewBox="0 0 22 21" id="instagram" xmlns="http://www.w3.org/2000/svg"><g clip-path="url(#lclip0)"><path d="M15.688 0H6.155C3.053 0 .53 2.55.53 5.684v9.632C.53 18.45 3.053 21 6.155 21h9.533c3.102 0 5.626-2.55 5.626-5.684V5.684C21.314 2.55 18.79 0 15.687 0zm4.407 15.316c0 2.455-1.977 4.453-4.407 4.453H6.155c-2.43 0-4.407-1.998-4.407-4.453V5.684c0-2.455 1.977-4.453 4.407-4.453h9.533c2.43 0 4.407 1.998 4.407 4.454v9.63z"/><path d="M10.921 4.758c-3.133 0-5.683 2.576-5.683 5.742s2.55 5.742 5.683 5.742c3.134 0 5.683-2.576 5.683-5.742s-2.549-5.742-5.683-5.742zm0 10.253c-2.461 0-4.464-2.024-4.464-4.511S8.46 5.989 10.92 5.989c2.462 0 4.465 2.024 4.465 4.51 0 2.488-2.003 4.512-4.465 4.512zM16.74 2.719a1.69 1.69 0 00-1.68 1.696 1.69 1.69 0 001.68 1.697 1.69 1.69 0 001.68-1.697 1.69 1.69 0 00-1.68-1.696zm0 2.162a.464.464 0 01-.461-.466c0-.256.207-.465.46-.465.255 0 .462.209.462.465a.464.464 0 01-.461.466z"/></g><defs><clipPath id="lclip0"><path transform="translate(.53)" d="M0 0h20.784v21H0z"/></clipPath></defs></symbol><symbol viewBox="0 0 19 20" id="key" xmlns="http://www.w3.org/2000/svg"><g clip-path="url(#mclip0)"><path d="M17.357 1.685c-2.135-2.247-5.608-2.247-7.743 0a5.826 5.826 0 00-1.568 3.422 6.068 6.068 0 00.546 3.238l-8.549 9 2.438 2.565.993-1.045L4.552 20l2.314-2.436-1.078-1.134.793-.836 1.078 1.135 2.314-2.435-1.078-1.135 2.135-2.248c.943.498 2.02.701 3.077.575 1.24-.148 2.365-.72 3.25-1.65 2.134-2.248 2.134-5.904 0-8.15zm-.787 7.321c-1.428 1.503-3.627 1.782-5.349.679l-.373-.24L7.32 13.16l1.078 1.135-.739.778-1.078-1.135-2.368 2.493 1.078 1.134-.739.778-1.078-1.134-.993 1.045-.863-.909 8.367-8.807-.228-.393c-1.047-1.813-.782-4.128.645-5.63a4.213 4.213 0 016.168 0c1.7 1.79 1.7 4.702 0 6.492z"/><path d="M13.254 3.29a1.994 1.994 0 000 2.714c.356.375.823.562 1.29.562.467 0 .934-.187 1.29-.562a1.994 1.994 0 000-2.715 1.762 1.762 0 00-2.58 0zm1.792 1.886a.686.686 0 01-1.005 0 .777.777 0 010-1.058.69.69 0 01.503-.218.69.69 0 01.502.218.777.777 0 010 1.058z"/></g><defs><clipPath id="mclip0"><path d="M0 0h19v20H0z"/></clipPath></defs></symbol><symbol viewBox="0 0 177 177" id="letter" xmlns="http://www.w3.org/2000/svg"><g clip-path="url(#nclip0)"><path d="M176.964 67.667a2.723 2.723 0 00-.121-.599 2.845 2.845 0 00-.168-.507 2.578 2.578 0 00-.295-.452 2.742 2.742 0 00-.392-.457c-.047-.041-.068-.098-.118-.139L147.499 43.48V20.642a8.851 8.851 0 00-8.851-8.85h-31.971l-12.8-9.94a8.747 8.747 0 00-10.76 0l-12.804 9.94h-31.97a8.85 8.85 0 00-8.851 8.85v22.837L1.129 65.514c-.05.041-.07.097-.117.138a2.767 2.767 0 00-.393.458c-.113.14-.212.29-.295.451a2.91 2.91 0 00-.168.508c-.061.191-.102.39-.12.59 0 .062-.036.115-.036.177v100.313a8.75 8.75 0 001.732 5.207c.017.027.02.059.04.083.022.023.066.05.095.082A8.808 8.808 0 008.841 177H168.15a8.813 8.813 0 006.997-3.493c.024-.03.059-.039.08-.068.021-.029.023-.056.041-.083a8.747 8.747 0 001.732-5.207V67.844c0-.062-.033-.115-.036-.177zM86.725 6.507a2.829 2.829 0 013.52 0l6.805 5.284H79.94l6.785-5.284zM9.585 171.1l77.14-59.92a2.833 2.833 0 013.52 0l77.161 59.92H9.585zm161.515-4.6l-77.224-59.977a8.754 8.754 0 00-10.759 0L5.891 166.5V72.337l48.344 37.541a2.951 2.951 0 103.617-4.665L8.738 67.077l20.754-16.129v22.796a2.95 2.95 0 005.9 0V20.641a2.95 2.95 0 012.95-2.95h100.305a2.95 2.95 0 012.951 2.95v53.103a2.95 2.95 0 105.9 0V50.948l20.754 16.129-49.2 38.204a2.95 2.95 0 103.617 4.661l48.43-37.605V166.5h.001z"/><path d="M123.895 70.793v-11.8c0-19.552-15.85-35.402-35.401-35.402-19.552 0-35.402 15.85-35.402 35.402 0 19.551 15.85 35.401 35.402 35.401a2.95 2.95 0 100-5.9c-16.293 0-29.502-13.208-29.502-29.501s13.209-29.501 29.502-29.501 29.501 13.208 29.501 29.501v11.8a5.9 5.9 0 01-11.801 0v-11.8a2.95 2.95 0 00-5.9 0c0 6.517-5.283 11.8-11.8 11.8-6.518 0-11.8-5.283-11.8-11.8s5.282-11.8 11.8-11.8a2.95 2.95 0 100-5.9 17.701 17.701 0 1011.927 30.743c.642 6.239 6.065 10.878 12.328 10.546 6.263-.332 11.166-5.517 11.146-11.789z"/></g><defs><clipPath id="nclip0"><path d="M0 0h177v177H0z"/></clipPath></defs></symbol><symbol viewBox="0 0 19 19" id="marker" xmlns="http://www.w3.org/2000/svg"><path d="M2.463 8.137c.104.805.307 1.655.606 2.528.41 1.198.99 2.402 1.723 3.578.903 1.449 2.044 2.862 3.392 4.199.353.35.82.543 1.318.543a1.86 1.86 0 001.319-.543c1.347-1.337 2.488-2.75 3.392-4.2a17.544 17.544 0 001.722-3.577c.299-.872.503-1.723.606-2.528.07-.552.071-.909.068-1.035a7.082 7.082 0 00-2.081-5.004A7.082 7.082 0 009.501.017a7.081 7.081 0 00-5.025 2.082 7.081 7.081 0 00-2.081 5.003c-.004.126-.003.483.067 1.035zm7.4 9.339a.51.51 0 01-.721 0C3.562 11.939 3.756 7.127 3.756 7.123a5.746 5.746 0 1111.492 0c0 .004.194 4.816-5.386 10.353z"/><path d="M9.5 19a1.88 1.88 0 01-1.33-.548C6.822 17.114 5.68 15.7 4.777 14.25a17.561 17.561 0 01-1.724-3.58 12.88 12.88 0 01-.607-2.532 7.086 7.086 0 01-.068-1.037 7.097 7.097 0 012.086-5.015A7.097 7.097 0 019.501 0a7.096 7.096 0 015.036 2.086 7.096 7.096 0 012.086 5.015c.003.128.003.485-.068 1.037a12.95 12.95 0 01-.607 2.532c-.41 1.2-.99 2.404-1.724 3.58-.904 1.45-2.045 2.864-3.394 4.202A1.876 1.876 0 019.5 19zM9.5.032a7.065 7.065 0 00-5.014 2.077A7.065 7.065 0 002.41 7.1c-.003.128-.003.483.067 1.033.104.804.307 1.654.606 2.526.41 1.197.989 2.399 1.72 3.573.903 1.449 2.044 2.86 3.39 4.197.35.347.814.538 1.308.538.493 0 .957-.191 1.307-.538 1.347-1.337 2.487-2.748 3.39-4.197a17.525 17.525 0 001.72-3.573c.299-.872.503-1.722.606-2.526.07-.55.07-.905.067-1.032a7.064 7.064 0 00-2.077-4.993A7.064 7.064 0 009.502.032zm0 17.607a.524.524 0 01-.37-.153C3.573 11.973 3.735 7.17 3.738 7.122A5.768 5.768 0 019.5 1.36a5.768 5.768 0 015.761 5.762c.002.048.041 1.23-.601 3.107a16.196 16.196 0 01-1.592 3.301c-.848 1.361-1.924 2.692-3.197 3.955a.524.524 0 01-.371.153zm0-16.247a5.737 5.737 0 00-5.73 5.73c0 .013-.043 1.222.602 3.102a16.173 16.173 0 001.588 3.293c.847 1.358 1.92 2.686 3.192 3.947a.492.492 0 00.697 0c1.272-1.262 2.346-2.591 3.194-3.95a16.17 16.17 0 001.588-3.295c.512-1.497.616-2.68.6-3.096 0-3.16-2.57-5.73-5.73-5.73z"/><path d="M12.653 3.79a4.439 4.439 0 00-3.15-1.305 4.44 4.44 0 00-3.15 1.305 4.44 4.44 0 00-1.306 3.15 4.438 4.438 0 001.305 3.15 4.438 4.438 0 003.15 1.305 4.438 4.438 0 003.15-1.305 4.44 4.44 0 001.306-3.15 4.439 4.439 0 00-1.305-3.15zm-3.15 6.245a3.095 3.095 0 110-6.19 3.095 3.095 0 010 6.19z"/><path d="M9.5 11.41a4.445 4.445 0 01-3.16-1.31 4.454 4.454 0 01-1.31-3.16 4.455 4.455 0 011.31-3.162 4.454 4.454 0 013.16-1.31 4.445 4.445 0 013.161 1.31 4.454 4.454 0 011.31 3.161 4.445 4.445 0 01-1.31 3.162 4.456 4.456 0 01-3.161 1.31zm0-8.91a4.423 4.423 0 00-3.14 1.3 4.423 4.423 0 00-1.299 3.14 4.423 4.423 0 001.3 3.14 4.422 4.422 0 003.14 1.299 4.424 4.424 0 003.14-1.3 4.423 4.423 0 001.3-3.14 4.423 4.423 0 00-1.3-3.14A4.424 4.424 0 009.5 2.5zm0 7.55a3.114 3.114 0 01-3.11-3.11A3.114 3.114 0 019.5 3.828a3.114 3.114 0 013.111 3.11 3.114 3.114 0 01-3.11 3.11zm0-6.19a3.082 3.082 0 00-3.078 3.08A3.082 3.082 0 009.5 10.017a3.082 3.082 0 003.078-3.079A3.082 3.082 0 009.5 3.86z"/></symbol><symbol viewBox="0 0 17 17" id="pen" xmlns="http://www.w3.org/2000/svg"><path d="M14.635 1.167a2.195 2.195 0 00-3.101 0l-.777.78-8.263 8.26-.018.018c-.004.004-.004.009-.009.009-.008.013-.022.026-.03.039 0 .004-.005.004-.005.009l-.022.035c-.004.004-.004.008-.008.013-.005.013-.01.022-.014.035 0 .004-.004.004-.004.009L.551 15.887a.432.432 0 00.105.448.441.441 0 00.452.105l5.509-1.838c.004 0 .004 0 .009-.004a.158.158 0 00.039-.018.015.015 0 00.009-.004l.044-.027c.013-.008.026-.021.04-.03.004-.005.008-.005.008-.009.004-.004.013-.009.018-.018l9.04-9.04a2.195 2.195 0 000-3.1l-1.19-1.185zM6.476 13.571L3.424 10.52l7.64-7.641 3.053 3.053-7.64 7.64zm-3.482-2.24l2.667 2.666-4.005 1.333 1.338-4zm12.211-6.492l-.465.469-3.053-3.053.47-.47a1.316 1.316 0 011.86 0l1.192 1.194a1.32 1.32 0 01-.004 1.86z"/></symbol><symbol viewBox="0 0 15 15" id="phone" xmlns="http://www.w3.org/2000/svg"><g clip-path="url(#qclip0)"><path d="M11.855 9.292c-.307-.32-.677-.49-1.07-.49-.389 0-.762.167-1.082.487l-1 .997-.244-.127a4.043 4.043 0 01-.314-.167C7.208 9.396 6.356 8.62 5.54 7.617c-.396-.5-.662-.921-.855-1.348.26-.238.5-.485.734-.722l.266-.27c.665-.664.665-1.525 0-2.19l-.864-.864c-.098-.098-.2-.2-.294-.301-.19-.196-.39-.399-.596-.589-.307-.304-.674-.465-1.06-.465s-.76.161-1.077.465l-.006.006L.712 2.425c-.405.405-.637.9-.687 1.472-.076.925.196 1.786.405 2.35.513 1.383 1.279 2.665 2.422 4.04a14.9 14.9 0 004.96 3.884c.729.345 1.7.753 2.787.823.066.003.136.006.2.006.73 0 1.345-.263 1.826-.785.003-.006.01-.01.012-.016.165-.2.355-.38.554-.573.137-.13.276-.266.412-.408.313-.326.478-.706.478-1.096 0-.392-.168-.769-.487-1.086l-1.739-1.744zm1.134 3.334c-.003 0-.003.003 0 0-.124.133-.25.253-.386.386a8.329 8.329 0 00-.611.633c-.32.342-.697.503-1.19.503-.048 0-.099 0-.146-.003-.94-.06-1.814-.427-2.47-.74a14.064 14.064 0 01-4.672-3.66c-1.08-1.301-1.802-2.504-2.28-3.796C.94 5.16.832 4.546.88 3.967c.031-.37.174-.677.436-.94l1.08-1.08c.155-.145.32-.225.481-.225.2 0 .361.12.462.222l.01.01c.193.18.377.367.57.566.098.102.2.203.3.307l.865.865c.335.335.335.645 0 .981-.092.092-.18.184-.272.272-.266.273-.52.526-.795.773-.006.006-.013.01-.016.016-.272.272-.222.538-.165.718l.01.029c.225.544.541 1.057 1.022 1.668l.004.003c.873 1.077 1.795 1.916 2.81 2.558.13.083.264.15.39.212.114.057.222.111.314.168.012.007.025.016.038.022.107.054.209.08.313.08a.673.673 0 00.481-.219l1.083-1.083c.108-.107.279-.237.478-.237.196 0 .358.123.456.231l.006.006 1.745 1.745c.326.323.326.655.003.99zM8.108 3.568c.83.14 1.583.532 2.184 1.133a4.03 4.03 0 011.133 2.185.425.425 0 00.421.354c.026 0 .048-.003.073-.006a.428.428 0 00.352-.494A4.882 4.882 0 0010.9 4.097a4.883 4.883 0 00-2.644-1.371.43.43 0 00-.493.348.423.423 0 00.345.494zm6.876 3.049a8.033 8.033 0 00-2.258-4.353A8.033 8.033 0 008.373.007a.426.426 0 10-.139.842c1.475.25 2.82.95 3.89 2.016a7.172 7.172 0 012.018 3.891.425.425 0 00.42.355.42.42 0 00.421-.494z"/></g><defs><clipPath id="qclip0"><path d="M0 0h15v15H0z"/></clipPath></defs></symbol><symbol viewBox="0 0 18 18" id="refresh" xmlns="http://www.w3.org/2000/svg"><path d="M10.143 1.143c-3.809 0-6.99 2.724-7.705 6.324L.944 5.6 0 6.356l2.418 3.022a.605.605 0 00.742.163l3.626-1.813-.54-1.082L3.58 7.978c.494-3.181 3.243-5.627 6.562-5.627A6.656 6.656 0 0116.79 9a6.656 6.656 0 01-6.648 6.649v1.208C14.475 16.857 18 13.332 18 9c0-4.332-3.525-7.857-7.857-7.857z"/></symbol><symbol viewBox="0 0 89 89" id="reviews" xmlns="http://www.w3.org/2000/svg"><g clip-path="url(#sclip0)"><path d="M61.188 89H27.813a1.855 1.855 0 01-1.854-1.854v-44.5c0-1.024.83-1.854 1.854-1.854h33.375c1.024 0 1.854.83 1.854 1.854v44.5c0 1.023-.83 1.854-1.854 1.854zm-31.52-3.708h29.666V44.5H29.667v40.792z"/><path d="M87.147 89H61.188a1.855 1.855 0 01-1.854-1.854V72.312c0-1.023.83-1.854 1.854-1.854h25.959c1.023 0 1.854.83 1.854 1.854v14.834A1.856 1.856 0 0187.146 89zm-24.105-3.708h22.25V74.167h-22.25v11.125zM27.813 89H1.854A1.855 1.855 0 010 87.146v-22.25c0-1.024.83-1.854 1.854-1.854h25.959c1.023 0 1.854.83 1.854 1.854v22.25A1.855 1.855 0 0127.812 89zM3.707 85.292h22.25V66.75H3.708v18.542zm49.96-51.917c-.363 0-.727-.108-1.042-.323L44.5 27.523l-8.125 5.53a1.847 1.847 0 01-2.106-.015 1.851 1.851 0 01-.734-1.973l2.529-9.976-7.602-6.493a1.854 1.854 0 011.098-3.26l9.686-.548 3.511-9.568c.538-1.465 2.945-1.465 3.479 0l3.512 9.568 9.686.548a1.854 1.854 0 011.097 3.26l-7.598 6.493 2.53 9.976a1.851 1.851 0 01-.735 1.973 1.812 1.812 0 01-1.06.337zm-9.167-9.95c.364 0 .727.108 1.042.323l5.129 3.486-1.613-6.356c-.17-.686.06-1.41.593-1.865l4.966-4.243-6.293-.36a1.85 1.85 0 01-1.636-1.212L44.5 7.238l-2.188 5.964a1.845 1.845 0 01-1.635 1.212l-6.297.36 4.966 4.242a1.85 1.85 0 01.593 1.866l-1.613 6.356 5.129-3.486a1.87 1.87 0 011.045-.326z"/></g><defs><clipPath id="sclip0"><path d="M0 0h89v89H0z"/></clipPath></defs></symbol><symbol viewBox="0 0 24 25" id="seeing" xmlns="http://www.w3.org/2000/svg"><g clip-path="url(#tclip0)"><path d="M19.266 12.577V10.32a7.319 7.319 0 00-5.157-6.997V2.3c0-1.17-.946-2.123-2.109-2.123S9.89 1.13 9.89 2.3v1.022a7.319 7.319 0 00-5.156 6.997v2.258c0 2.893-1.095 5.637-3.085 7.725a.71.71 0 00-.14.767c.111.26.366.43.647.43h6.4c.326 1.613 1.746 2.83 3.444 2.83s3.118-1.217 3.445-2.83h6.399c.281 0 .536-.17.646-.43a.71.71 0 00-.139-.767 11.148 11.148 0 01-3.085-7.725zM11.296 2.3c0-.39.316-.707.704-.707.388 0 .703.317.703.707v.742a7.277 7.277 0 00-1.406 0V2.3zM12 22.914a2.114 2.114 0 01-1.988-1.415h3.976A2.114 2.114 0 0112 22.914zm-8.328-2.83a12.563 12.563 0 002.469-7.507V10.32c0-3.251 2.628-5.896 5.86-5.896 3.23 0 5.858 2.645 5.858 5.896v2.258c0 2.733.868 5.347 2.47 7.507H3.671zm17.469-9.764c0 .39.315.707.703.707a.705.705 0 00.703-.708c0-2.835-1.097-5.5-3.089-7.505a.7.7 0 00-.994 0 .71.71 0 000 1.001 9.168 9.168 0 012.677 6.504zm-18.985.707a.705.705 0 00.703-.708c0-2.457.951-4.767 2.678-6.504a.71.71 0 000-1 .7.7 0 00-.995 0 10.578 10.578 0 00-3.089 7.504c0 .391.315.708.703.708z"/></g><defs><clipPath id="tclip0"><path transform="translate(0 .177)" d="M0 0h24v24.152H0z"/></clipPath></defs></symbol><symbol viewBox="0 0 25 24" id="telegram" xmlns="http://www.w3.org/2000/svg"><g clip-path="url(#uclip0)"><path d="M.489 11.196l6.1 2.925a.809.809 0 00.74-.023l5.428-3.037-3.286 2.802a.739.739 0 00-.263.562v6.825c0 .72.955 1.023 1.403.45l2.636-3.372 6.52 3.573c.458.253 1.044-.001 1.15-.504l4.066-19.5c.122-.586-.484-1.064-1.047-.846L.553 9.826a.74.74 0 00-.064 1.37zm22.686-8.25l-3.574 17.138-6.178-3.386a.801.801 0 00-1.009.2l-1.647 2.108v-4.244l8.886-7.576c.704-.6-.105-1.664-.908-1.21L6.908 12.598l-4.148-1.99 20.415-7.661z"/></g><defs><clipPath id="uclip0"><path transform="translate(.059)" d="M0 0h24.941v24H0z"/></clipPath></defs></symbol><symbol viewBox="0 0 18 20" id="user" xmlns="http://www.w3.org/2000/svg"><path d="M8.853 10.974C3.144 10.974 0 13.697 0 18.641c0 .387.31.7.693.7h16.32a.696.696 0 00.693-.7c0-4.944-3.144-7.667-8.853-7.667zm-7.44 6.968c.272-3.697 2.772-5.57 7.44-5.57 4.668 0 7.168 1.873 7.44 5.57H1.414zM8.854.184c-2.623 0-4.6 2.034-4.6 4.73 0 2.776 2.063 5.034 4.6 5.034 2.536 0 4.6-2.258 4.6-5.033 0-2.697-1.978-4.731-4.6-4.731zm0 8.366c-1.772 0-3.213-1.63-3.213-3.635 0-1.931 1.351-3.333 3.213-3.333 1.832 0 3.213 1.433 3.213 3.333 0 2.004-1.442 3.635-3.213 3.635z"/></symbol><symbol viewBox="0 0 21 21" id="whatsapp" xmlns="http://www.w3.org/2000/svg"><g clip-path="url(#wclip0)"><path d="M11.544 15.816c3.507.844 4.741-2.187 4.123-3.318-.248-.452-2.474-1.319-2.582-1.361-.956-.352-1.31.304-1.972 1.168-1.272-.643-2.125-1.15-3.001-2.59.049-.062.115-.136.164-.191.307-.347.88-.993.49-1.783-.33-.662-.493-1.124-.614-1.463-.349-.98-.614-1.247-1.817-1.247-1.25 0-2.222 1.662-2.222 3.093 0 3.122 4.155 6.902 7.43 7.692zM6.335 6.345c.26 0 .392.008.458.019.14.3.282.927.805 1.901-.081.308-1.237 1.028-.701 1.959 1.095 1.88 2.192 2.531 3.762 3.32 1.047.478 1.38-.387 2.044-1.148.308.126 1.345.59 1.8.823-.04.906-.906 1.743-2.658 1.321-3.007-.725-6.434-4.143-6.434-6.416.001-.865.601-1.78.924-1.78z"/><path d="M.07 20.199a.655.655 0 00.627.83c.156 0-.099.04 5.064-1.312 2.102 1.081 3.7 1.047 4.72 1.144 9.141 0 13.618-11.264 7.328-17.817C9.186-5.377-4.244 5.088 1.376 15.404L.071 20.2zM16.776 3.861c.15.276 4.447 4.192 2.054 10.043-1.473 3.605-4.872 5.827-8.681 5.619-3.099-.174-3.9-1.293-4.471-1.14L1.62 19.451l1.08-3.959a.663.663 0 00-.063-.503C-2.545 5.956 9.171-3.332 16.775 3.861z"/></g><defs><clipPath id="wclip0"><path d="M0 0h20.784v21H0z"/></clipPath></defs></symbol><symbol viewBox="0 0 89 89" id="winner" xmlns="http://www.w3.org/2000/svg"><g clip-path="url(#xclip0)"><path d="M84.219 23.296c-2.008-.831-4.882-.27-6.446 2.932l-.013.027-5.758 12.329a4.61 4.61 0 00-2.728-.25 4.64 4.64 0 00-2.958 2.025c-.43.663-1.846 2.927-3.345 5.325-1.424 2.276-2.895 4.63-3.309 5.266-.85 1.308-2.426 2.813-4.094 4.405-4.627 4.417-10.86 10.368-9.976 19.683h-2.184c.406-4.258-.635-8.218-3.163-12.058a1.739 1.739 0 00-2.904 1.911c2.165 3.29 2.99 6.539 2.57 10.147H25.46l.188-3.764a1.738 1.738 0 00-.419-1.22l-6.099-7.086c-3.828-4.446-4.617-5.848-6.498-11.534-1.543-4.666-3.331-10.646-4.768-15.45-1.085-3.63-1.943-6.5-2.356-7.663-.344-1.011.11-1.609.603-1.813.706-.293 1.466.18 1.985 1.234l6.389 13.678c-.233.906-.233 2.069.18 3.556 1.193 4.29 2.767 8.625 4.32 11.896a1.738 1.738 0 103.14-1.49c-1.47-3.1-2.968-7.232-4.11-11.337-.322-1.161-.282-1.883.12-2.147a1.186 1.186 0 011.633.356c.868 1.336 1.714 2.747 2.61 4.24 1.42 2.37 2.89 4.82 4.455 6.942a1.738 1.738 0 102.797-2.064c-1.467-1.987-2.892-4.365-4.27-6.665-.873-1.455-1.774-2.959-2.677-4.347a4.639 4.639 0 00-2.957-2.026 4.61 4.61 0 00-2.729.25L11.24 26.256l-.013-.028c-1.564-3.2-4.437-3.763-6.445-2.932-2.034.842-3.565 3.229-2.558 6.16l.006.018c.382 1.075 1.273 4.055 2.304 7.505 1.444 4.827 3.24 10.833 4.799 15.547 2.026 6.127 3.03 7.91 7.164 12.71l5.645 6.559-.161 3.243h-1.812c-.96 0-1.739.778-1.739 1.738v10.486c0 .96.779 1.738 1.739 1.738h48.663c.96 0 1.738-.779 1.738-1.738V76.776c0-.96-.779-1.738-1.738-1.738h-1.813l-.161-3.243 5.645-6.558c4.134-4.802 5.138-6.583 7.164-12.711 1.56-4.715 3.356-10.722 4.8-15.549 1.03-3.45 1.922-6.428 2.303-7.503l.006-.017c1.007-2.932-.524-5.319-2.557-6.161zM21.907 78.515h20.855v7.008H21.907v-7.008zm45.186 7.008H46.238v-7.008h20.855v7.008zM83.49 28.322c-.412 1.164-1.27 4.032-2.355 7.66-1.437 4.805-3.225 10.786-4.768 15.453-1.88 5.686-2.67 7.088-6.499 11.534l-6.099 7.085c-.29.338-.44.776-.418 1.221l.188 3.764H49.087c-.903-7.828 4.281-12.777 8.881-17.169 1.82-1.736 3.538-3.377 4.61-5.025.43-.661 1.843-2.923 3.34-5.317a698.979 698.979 0 013.313-5.273 1.188 1.188 0 011.633-.356c.402.264.442.986.12 2.146-1.141 4.106-2.64 8.238-4.11 11.337a1.738 1.738 0 103.14 1.49c1.553-3.27 3.127-7.607 4.319-11.896.413-1.487.414-2.649.181-3.556l6.389-13.677c.519-1.054 1.278-1.527 1.985-1.235.494.205.947.803.602 1.814z"/><path d="M30.235 27.215l-1.127 8.593a5.171 5.171 0 00.433 3.269 5.227 5.227 0 006.98 2.409l7.888-3.84 8.1 3.859c.917.437 1.94.594 2.962.452a5.181 5.181 0 003.444-2.018 5.183 5.183 0 001.007-3.865l-1.215-8.698 5.997-6.326a5.176 5.176 0 001.537-2.878 5.187 5.187 0 00-.872-3.9 5.184 5.184 0 00-3.37-2.14l-8.644-1.531-4.283-7.88A5.194 5.194 0 0046.947.616 5.173 5.173 0 0042.98.228a5.177 5.177 0 00-3.08 2.533l-4.13 7.749-8.688 1.614a5.181 5.181 0 00-2.804 1.394 5.179 5.179 0 00-1.598 3.656 5.181 5.181 0 001.456 3.718l6.098 6.324zm-3.546-11.193a1.723 1.723 0 011.002-.475l9.538-1.773a1.74 1.74 0 001.217-.892l4.52-8.485a1.722 1.722 0 011.025-.843 1.733 1.733 0 011.32.129c.3.16.545.402.707.699l4.683 8.615a1.74 1.74 0 001.224.881l9.473 1.678c.459.08.859.334 1.127.716.268.38.371.843.291 1.303a1.73 1.73 0 01-.527.973 1.717 1.717 0 00-.075.075l-6.606 6.968a1.738 1.738 0 00-.46 1.437l1.33 9.525a1.74 1.74 0 01-1.483 1.96 1.732 1.732 0 01-.989-.146l-8.858-4.22a1.738 1.738 0 00-1.508.006l-8.641 4.207a1.746 1.746 0 01-2.473-1.918c.009-.041.016-.083.021-.125l1.244-9.48a1.738 1.738 0 00-.473-1.433l-6.677-6.925a1.726 1.726 0 01-.485-1.238c.01-.464.199-.897.533-1.219z"/><path d="M42.572 27.504a1.738 1.738 0 000 3.477h3.855a1.738 1.738 0 000-3.477h-.19V15.337a1.738 1.738 0 00-2.607-1.506l-1.927 1.113a1.738 1.738 0 001.058 3.233v9.327h-.189zm-8.887 28.769a1.738 1.738 0 10-.002 3.476 1.738 1.738 0 00.003-3.476h-.001z"/></g><defs><clipPath id="xclip0"><path d="M0 0h89v89H0z"/></clipPath></defs></symbol></svg>