<svg width="587" height="289" fill="none" xmlns="http://www.w3.org/2000/svg"><path opacity=".1" fill-rule="evenodd" clip-rule="evenodd" d="M0 0c6.092 160.666 135.01 289 293.152 289S580.212 160.666 586.304 0H0z" fill="#82817A"/><path d="M185 87l4.266 13.129h13.804l-11.168 8.114 4.266 13.128L185 113.257l-11.168 8.114 4.266-13.128-11.168-8.114h13.804L185 87zm-44 172l3.368 10.365h10.898l-8.817 6.406 3.368 10.364-8.817-6.406-8.817 6.406 3.368-10.364-8.817-6.406h10.898L141 259zm362-86l2.47 7.601h7.992l-6.466 4.697 2.47 7.601-6.466-4.697-6.466 4.697 2.47-7.601-6.466-4.697h7.992L503 173z" fill="#FED945"/></svg>